<mxfile host="app.diagrams.net" modified="2022-02-07T08:23:27.846Z" agent="5.0 (Macintosh; Intel Mac OS X 10_15_7) AppleWebKit/605.1.15 (KHTML, like Gecko) Version/15.0 Safari/605.1.15" etag="OzxibXn7tmNYbZUicG92" version="16.5.3" type="github">
  <diagram id="4_MvJZbQ4KGRWns48lMO" name="Page-1">
    <mxGraphModel dx="914" dy="612" grid="1" gridSize="10" guides="1" tooltips="1" connect="1" arrows="1" fold="1" page="1" pageScale="1" pageWidth="850" pageHeight="1100" math="0" shadow="0">
      <root>
        <mxCell id="0" />
        <mxCell id="1" parent="0" />
        <mxCell id="CiGQHhAC6o2fzIwNxQN8-1" value="ViewRootImpl" style="shape=umlLifeline;perimeter=lifelinePerimeter;whiteSpace=wrap;html=1;container=1;collapsible=0;recursiveResize=0;outlineConnect=0;rounded=0;sketch=0;fontColor=#1D3557;strokeColor=#457B9D;fillColor=#A8DADC;" vertex="1" parent="1">
          <mxGeometry x="60" y="20" width="100" height="720" as="geometry" />
        </mxCell>
        <mxCell id="CiGQHhAC6o2fzIwNxQN8-5" value="" style="html=1;points=[];perimeter=orthogonalPerimeter;rounded=0;sketch=0;fontColor=#1D3557;strokeColor=#457B9D;fillColor=#A8DADC;" vertex="1" parent="CiGQHhAC6o2fzIwNxQN8-1">
          <mxGeometry x="40" y="80" width="10" height="80" as="geometry" />
        </mxCell>
        <mxCell id="CiGQHhAC6o2fzIwNxQN8-6" value="requestLayout" style="html=1;verticalAlign=bottom;startArrow=oval;endArrow=block;startSize=8;rounded=1;sketch=0;fontColor=#1D3557;strokeColor=#457B9D;fillColor=#A8DADC;curved=0;" edge="1" target="CiGQHhAC6o2fzIwNxQN8-5" parent="CiGQHhAC6o2fzIwNxQN8-1">
          <mxGeometry relative="1" as="geometry">
            <mxPoint x="-20" y="80" as="sourcePoint" />
          </mxGeometry>
        </mxCell>
        <mxCell id="CiGQHhAC6o2fzIwNxQN8-2" value="DecorView" style="shape=umlLifeline;perimeter=lifelinePerimeter;whiteSpace=wrap;html=1;container=1;collapsible=0;recursiveResize=0;outlineConnect=0;rounded=0;sketch=0;fontColor=#1D3557;strokeColor=#457B9D;fillColor=#A8DADC;" vertex="1" parent="1">
          <mxGeometry x="370" y="20" width="100" height="730" as="geometry" />
        </mxCell>
        <mxCell id="CiGQHhAC6o2fzIwNxQN8-3" value="WindowManager&lt;br&gt;本地代理" style="shape=umlLifeline;perimeter=lifelinePerimeter;whiteSpace=wrap;html=1;container=1;collapsible=0;recursiveResize=0;outlineConnect=0;rounded=0;sketch=0;fontColor=#1D3557;strokeColor=#457B9D;fillColor=#A8DADC;" vertex="1" parent="1">
          <mxGeometry x="220" y="20" width="100" height="400" as="geometry" />
        </mxCell>
        <mxCell id="CiGQHhAC6o2fzIwNxQN8-4" value="ViewTree" style="shape=umlLifeline;perimeter=lifelinePerimeter;whiteSpace=wrap;html=1;container=1;collapsible=0;recursiveResize=0;outlineConnect=0;rounded=0;sketch=0;fontColor=#1D3557;strokeColor=#457B9D;fillColor=#A8DADC;" vertex="1" parent="1">
          <mxGeometry x="510" y="20" width="100" height="300" as="geometry" />
        </mxCell>
      </root>
    </mxGraphModel>
  </diagram>
</mxfile>
